<?xml version="1.0" encoding="iso-8859-1"?>
<!-- Uploaded to: SVG Repo, www.svgrepo.com, Generator: SVG Repo Mixer Tools -->
<svg fill="#000000" height="800px" width="800px" version="1.1" id="Layer_1" xmlns="http://www.w3.org/2000/svg" xmlns:xlink="http://www.w3.org/1999/xlink" 
	 viewBox="0 0 355.788 355.788" xml:space="preserve">
<g>
	<g>
		<g>
			<path d="M285.631,179.288l-70.107-60.749c-1.463-6.975-4.886-13.616-10.29-19.021c-0.625-0.625-1.274-1.216-1.933-1.792
				l-9.789-83.828C192.586,5.975,185.872,0,177.894,0c-7.978,0-14.691,5.975-15.616,13.898l-9.898,84.759
				c-0.303,0.284-0.608,0.566-0.904,0.861c-5.052,5.052-8.499,11.278-10.103,18.06l-71.216,61.71
				c-6.028,5.224-7.19,14.135-2.701,20.73c3.02,4.435,7.95,6.875,13.007,6.875c2.462,0,4.955-0.579,7.271-1.79l68.71-35.902
				l-4.12,168.587h-19.591c-4.971,0-9,4.029-9,9s4.029,9,9,9h91.572c4.971,0,9-4.029,9-9s-4.029-9-9-9h-19.591l-4.104-167.925
				l67.442,35.24c2.316,1.21,4.809,1.79,7.271,1.79c5.057,0,9.987-2.442,13.008-6.877
				C292.821,193.423,291.659,184.512,285.631,179.288z M96.687,180.117l46.197-40.03c1.692,4.388,4.2,8.45,7.457,11.995
				L96.687,180.117z M177.894,35.36l6.243,53.463c-1.897-0.288-3.828-0.438-5.783-0.438c-2.279,0-4.524,0.21-6.722,0.6
				L177.894,35.36z M170.33,337.79L170.33,337.79l4.242-173.567c1.249,0.123,2.511,0.185,3.783,0.185
				c1.384,0,2.756-0.08,4.113-0.225l4.244,173.607H170.33z M192.504,140.546c-3.779,3.78-8.805,5.861-14.15,5.861
				c-5.345,0-10.37-2.082-14.149-5.861c-3.78-3.779-5.862-8.805-5.862-14.15c0-5.345,2.082-10.37,5.862-14.15
				c3.779-3.779,8.805-5.861,14.149-5.861c5.346,0,10.371,2.082,14.15,5.861C200.307,120.049,200.307,132.744,192.504,140.546z
				 M206.061,152.403c3.297-3.51,5.81-7.493,7.52-11.729l45.52,39.443L206.061,152.403z"/>
			<circle cx="178.355" cy="126.396" r="8.635"/>
		</g>
	</g>
</g>
</svg>